<?xml version="1.0" encoding="UTF-8" standalone="no"?>
<!-- Created with Inkscape (http://www.inkscape.org/) -->

<svg
   width="512"
   height="512"
   viewBox="0 0 512 512"
   version="1.1"
   id="svg1"
   inkscape:version="1.4 (e7c3feb100, 2024-10-09)"
   sodipodi:docname="favicon.svg"
   xmlns:inkscape="http://www.inkscape.org/namespaces/inkscape"
   xmlns:sodipodi="http://sodipodi.sourceforge.net/DTD/sodipodi-0.dtd"
   xmlns="http://www.w3.org/2000/svg"
   xmlns:svg="http://www.w3.org/2000/svg">
  <sodipodi:namedview
     id="namedview1"
     pagecolor="#ffffff"
     bordercolor="#111111"
     borderopacity="1"
     inkscape:showpageshadow="0"
     inkscape:pageopacity="0"
     inkscape:pagecheckerboard="1"
     inkscape:deskcolor="#d1d1d1"
     inkscape:document-units="px"
     inkscape:zoom="1.0456817"
     inkscape:cx="151.57576"
     inkscape:cy="245.29453"
     inkscape:window-width="1440"
     inkscape:window-height="888"
     inkscape:window-x="0"
     inkscape:window-y="0"
     inkscape:window-maximized="1"
     inkscape:current-layer="layer1" />
  <defs
     id="defs1" />
  <g
     inkscape:label="Layer 1"
     inkscape:groupmode="layer"
     id="layer1">
    <path
       style="fill:#00ff00"
       id="path1"
       d="m 130.84275,114.53562 c 0.13555,3.03795 0.30239,6.07466 0.40664,9.11385 0.71126,20.73453 1.14767,41.47797 1.90526,62.21147 0.39849,10.90567 1.46918,35.64839 1.94866,46.89379 0.27887,6.42283 0.55774,12.84566 0.83661,19.26849 1.73894,40.05021 58.37849,37.59098 56.63955,-2.45923 v 0 c -0.27823,-6.40816 -0.55647,-12.81632 -0.83471,-19.22449 -0.45551,-10.68171 -1.54755,-35.93656 -1.9271,-46.31983 -0.76766,-21.00066 -1.16734,-42.01439 -1.93704,-63.01434 -0.13664,-3.72779 -0.36052,-7.45187 -0.54078,-11.1778 -3.32913,-39.94947 -59.82621,-35.24138 -56.49709,4.70809 z" />
    <path
       style="fill:#ff00ff"
       id="path2"
       d="m 301.10053,87.563276 c 0.1301,2.340971 0.31699,4.679477 0.39028,7.022916 0.22604,7.227158 0.29404,22.533888 0.3189,28.875298 0.0673,17.17216 0.005,34.34357 0.0907,51.51571 0.15769,15.8497 0.54472,31.70836 2.18292,47.48159 0.76258,5.76297 1.42369,11.53699 1.91688,17.32914 3.43298,39.94068 59.91763,35.08571 56.48465,-4.85497 v 0 c -0.53324,-6.1583 -1.18993,-12.30438 -2.02233,-18.43009 -1.50194,-13.88326 -1.6524,-27.86187 -1.86993,-41.81151 -0.0873,-17.20223 -0.0208,-34.40379 -0.0912,-51.60603 -0.0348,-8.49847 -0.0937,-22.95361 -0.41441,-31.809875 -0.11084,-3.061321 -0.37143,-6.115385 -0.55714,-9.173078 -3.86144,-39.901535 -60.29073,-34.440636 -56.4293,5.460899 z" />
    <path
       style="fill:#ffffff"
       id="path6"
       d="m 190.03833,378.29408 c 10.81709,17.27072 21.94599,34.33846 33.25304,51.29135 22.24508,33.34965 69.40862,1.89035 47.16353,-31.4593 v 0 c -11.25071,-16.8655 -22.30704,-33.85565 -33.08036,-51.03091 -22.06093,-33.47176 -69.39715,-2.27289 -47.33621,31.19886 z" />
    <path
       style="fill:#ffffff"
       id="path7"
       d="m 273.00046,438.41989 c 12.74737,-13.76535 24.68278,-28.25362 36.80776,-42.56263 25.9161,-30.5843 -17.33663,-67.23519 -43.25273,-36.6509 v 0 c -11.11906,13.12192 -22.09535,26.3751 -33.64298,39.12558 -28.34645,28.34646 11.74149,68.4344 40.08795,40.08795 z" />
  </g>
</svg>
