<?xml version="1.0" encoding="UTF-8" standalone="no"?>
<!-- Created with Inkscape (http://www.inkscape.org/) -->

<svg
   width="1080"
   height="1080"
   viewBox="0 0 1080 1080"
   version="1.1"
   id="svg1"
   xml:space="preserve"
   inkscape:version="1.4.2 (ebf0e940d0, 2025-05-08)"
   sodipodi:docname="scamadviserbad.svg"
   xmlns:inkscape="http://www.inkscape.org/namespaces/inkscape"
   xmlns:sodipodi="http://sodipodi.sourceforge.net/DTD/sodipodi-0.dtd"
   xmlns="http://www.w3.org/2000/svg"
   xmlns:svg="http://www.w3.org/2000/svg"><sodipodi:namedview
     id="namedview1"
     pagecolor="#505050"
     bordercolor="#eeeeee"
     borderopacity="1"
     inkscape:showpageshadow="0"
     inkscape:pageopacity="0"
     inkscape:pagecheckerboard="0"
     inkscape:deskcolor="#505050"
     inkscape:document-units="px"
     inkscape:zoom="0.63055556"
     inkscape:cx="540"
     inkscape:cy="540"
     inkscape:window-width="1440"
     inkscape:window-height="932"
     inkscape:window-x="0"
     inkscape:window-y="0"
     inkscape:window-maximized="1"
     inkscape:current-layer="layer1" /><defs
     id="defs1"><clipPath
       stroke="null"
       id="svg_5"
       clipPathUnits="userSpaceOnUse"><path
         stroke="null"
         id="svg_34"
         d="m-3204.09671,1704.17254l13602.625,0l0,-815.419l-13602.625,0l0,815.419z" /></clipPath></defs><g
     inkscape:label="Layer 1"
     inkscape:groupmode="layer"
     id="layer1"><g
       id="g2"
       transform="translate(177.50048,463.55306)"><title
         id="title1">ScamAdviser.com Logo</title><g
         stroke="null"
         id="g1"><defs
           stroke="null"
           transform="translate(1 0) translate(1 0) translate(-1 0) translate(-1 0) translate(-1 0) translate(0 -1) translate(-3 -69) translate(-1187 -204) translate(-979 -164) translate(283 0) translate(806 10) translate(-1335.08 0) translate(0 -243.613) translate(2975 604.531) scale(0.761104 0.761104) translate(-2975 -604.531) translate(2622.51 578.805) scale(0.572503 0.572503) translate(-2622.51 -578.805) translate(1856.64 542.832) scale(0.623167 0.623167) translate(-1856.64 -542.832) translate(7.36141 282.026) scale(0.978934 0.978934) translate(-7.36141 -282.026) translate(2979.52 288.095) scale(0.98481 0.98481) translate(-2979.52 -288.095) translate(42.016 28.9555) scale(0.919023 0.919023) translate(-42.016 -28.9555) translate(41.5616 27.3501) scale(0.986014 0.986014) translate(-41.5616 -27.3501)"
           id="svg_33"><clipPath
             stroke="null"
             id="clipPath1"
             clipPathUnits="userSpaceOnUse"><path
               stroke="null"
               id="path1"
               d="M -3204.0967,1704.1725 H 10398.528 V 888.75354 H -3204.0967 Z" /></clipPath></defs><g
           stroke="null"
           transform="matrix(0.316286,0,0,-0.316286,964.324,486.5)"
           id="svg_2"><g
             stroke="null"
             id="svg_3"><g
               stroke="null"
               clip-path="url(#svg_5)"
               id="svg_4"><g
                 stroke="null"
                 transform="translate(186.811,582.169)"
                 id="svg_31"><path
                   stroke="null"
                   fill-rule="nonzero"
                   fill="#000000"
                   id="svg_32"
                   d="m -3204.0967,888.75354 v -235.802 l 158.143,-159.555 158.143,159.555 v 235.802 c 0,0 -146.847,104.487 -316.286,0" /></g><g
                 stroke="null"
                 transform="translate(186.811,346.366)"
                 id="svg_29"><path
                   stroke="null"
                   fill-rule="nonzero"
                   fill="#cc1517"
                   id="svg_30"
                   d="m -3204.0967,888.75354 76.247,76.247 79.072,-76.247 160.967,155.31896 V 888.75354 l -158.143,-159.555 z" /></g><g
                 stroke="null"
                 transform="translate(419.126,420.66)"
                 id="svg_27"><path
                   stroke="null"
                   fill-rule="nonzero"
                   fill="#ffffff"
                   id="svg_28"
                   d="m -3204.0967,888.75354 -76.995,-74.294 -79.072,76.248 77.057,77.056 z" /></g><g
                 stroke="null"
                 transform="translate(675.25,445.63)"
                 id="svg_25"><path
                   stroke="null"
                   fill-rule="nonzero"
                   fill="#cc1517"
                   id="svg_26"
                   d="m -3204.0967,888.75354 c -5.009,4.066 -10.014,7.077 -15.02,9.036 -5.009,1.954 -9.857,2.933 -14.551,2.933 -5.948,0 -10.795,-1.408 -14.55,-4.224 -3.755,-2.817 -5.633,-6.495 -5.633,-11.031 0,-3.131 0.939,-5.713 2.816,-7.745 1.878,-2.035 4.342,-3.795 7.393,-5.28 3.051,-1.489 6.491,-2.78 10.327,-3.872 3.832,-1.097 7.627,-2.27 11.382,-3.521 15.02,-5.009 26.01,-11.698 32.973,-20.065 6.961,-8.372 10.444,-19.285 10.444,-32.74 0,-9.075 -1.525,-17.289 -4.576,-24.642 -3.051,-7.356 -7.51,-13.652 -13.377,-18.892 -5.868,-5.244 -13.066,-9.311 -21.592,-12.204 -8.529,-2.893 -18.188,-4.342 -28.984,-4.342 -22.376,0 -43.106,6.648 -62.192,19.949 l 19.713,37.08 c 6.884,-6.101 13.69,-10.641 20.419,-13.611 6.725,-2.974 13.377,-4.46 19.948,-4.46 7.51,0 13.102,1.721 16.78,5.164 3.674,3.439 5.515,7.352 5.515,11.734 0,2.659 -0.469,4.965 -1.408,6.924 -0.939,1.954 -2.504,3.754 -4.694,5.397 -2.193,1.643 -5.045,3.169 -8.566,4.577 -3.52,1.408 -7.784,2.97 -12.79,4.694 -5.948,1.877 -11.775,3.948 -17.484,6.218 -5.714,2.267 -10.796,5.281 -15.255,9.036 -4.459,3.755 -8.06,8.485 -10.796,14.199 -2.739,5.71 -4.107,12.944 -4.107,21.708 0,8.761 1.445,16.7 4.342,23.821 2.893,7.118 6.96,13.22 12.204,18.306 5.24,5.083 11.653,9.035 19.244,11.851 7.587,2.817 16.077,4.225 25.464,4.225 8.76,0 17.913,-1.214 27.458,-3.637 9.542,-2.428 18.695,-5.985 27.459,-10.679 z" /></g><g
                 stroke="null"
                 transform="translate(861.669,431.783)"
                 id="svg_23"><path
                   stroke="null"
                   fill-rule="nonzero"
                   fill="#cc1517"
                   id="svg_24"
                   d="m -3204.0967,888.75354 c -10.642,12.985 -23.785,19.479 -39.428,19.479 -6.887,0 -13.26,-1.254 -19.127,-3.755 -5.867,-2.504 -10.913,-5.907 -15.138,-10.209 -4.224,-4.305 -7.55,-9.428 -9.974,-15.372 -2.427,-5.948 -3.637,-12.361 -3.637,-19.244 0,-7.041 1.21,-13.535 3.637,-19.479 2.424,-5.948 5.787,-11.112 10.092,-15.49 4.301,-4.382 9.348,-7.825 15.138,-10.326 5.786,-2.504 12.045,-3.755 18.774,-3.755 14.705,0 27.928,6.256 39.663,18.775 v -54.448 l -4.694,-1.643 c -7.041,-2.5 -13.612,-4.341 -19.714,-5.514 -6.101,-1.174 -12.127,-1.761 -18.071,-1.761 -12.203,0 -23.901,2.31 -35.086,6.924 -11.188,4.613 -21.045,11.107 -29.57,19.478 -8.53,8.369 -15.373,18.306 -20.536,29.806 -5.163,11.5 -7.744,24.056 -7.744,37.667 0,13.613 2.541,26.088 7.627,37.433 5.082,11.343 11.889,21.122 20.418,29.336 8.526,8.214 18.423,14.628 29.688,19.245 11.265,4.613 23.076,6.923 35.438,6.923 7.041,0 13.964,-0.744 20.77,-2.229 6.806,-1.489 13.964,-3.796 21.474,-6.924 z" /></g><g
                 stroke="null"
                 transform="translate(995.748,379.682)"
                 id="svg_21"><path
                   stroke="null"
                   fill-rule="nonzero"
                   fill="#cc1517"
                   id="svg_22"
                   d="m -3204.0967,888.75354 -20.653,58.907 -20.652,-58.907 z m 12.204,-34.968 h -65.713 l -10.561,-30.744 h -49.05 l 67.356,176.954 h 50.223 l 67.356,-176.954 h -49.05 z" /></g><g
                 stroke="null"
                 transform="translate(1087.1,313.969)"
                 id="svg_19"><path
                   stroke="null"
                   fill-rule="nonzero"
                   fill="#cc1517"
                   id="svg_20"
                   d="m -3204.0967,888.75354 30.04,176.95496 h 45.53 l 35.438,-94.34496 35.203,94.34496 h 45.529 l 30.041,-176.95496 h -45.765 l -15.254,101.855 -41.775,-101.855 h -18.305 l -39.663,101.855 -15.254,-101.855 z" /></g><g
                 stroke="null"
                 transform="translate(1439.32,379.682)"
                 id="svg_17"><path
                   stroke="null"
                   fill-rule="nonzero"
                   fill="#000000"
                   id="svg_18"
                   d="m -3204.0967,888.75354 -20.653,58.907 -20.652,-58.907 z m 12.204,-34.968 h -65.713 l -10.561,-30.744 h -49.05 l 67.356,176.954 h 50.223 l 67.356,-176.954 h -49.05 z" /></g><g
                 stroke="null"
                 transform="translate(1577.85,352.928)"
                 id="svg_15"><path
                   stroke="null"
                   fill-rule="nonzero"
                   fill="#000000"
                   id="svg_16"
                   d="m -3204.0967,888.75354 h 10.562 c 7.979,0 15.096,1.25 21.356,3.755 6.256,2.501 11.537,5.944 15.842,10.326 4.301,4.378 7.586,9.582 9.856,15.607 2.266,6.021 3.404,12.632 3.404,19.831 0,7.041 -1.175,13.612 -3.521,19.714 -2.347,6.101 -5.673,11.341 -9.974,15.723 -4.305,4.379 -9.586,7.823 -15.841,10.327 -6.261,2.501 -13.301,3.755 -21.122,3.755 h -10.562 z m -45.998,137.99596 h 68.059 c 12.046,0 23.351,-2.428 33.913,-7.275 10.56,-4.851 19.791,-11.306 27.693,-19.362 7.898,-8.05996 14.118,-17.44796 18.657,-28.16196 4.536,-10.719 6.806,-21.943 6.806,-33.678 0,-11.581 -2.229,-22.728 -6.689,-33.443 -4.459,-10.719 -10.641,-20.146 -18.54,-28.28 -7.902,-8.137 -17.132,-14.631 -27.693,-19.48 -10.561,-4.851 -21.943,-7.275 -34.147,-7.275 h -68.059 z" /></g><g
                 stroke="null"
                 transform="translate(1735.58,490.924)"
                 id="svg_13"><path
                   stroke="null"
                   fill-rule="nonzero"
                   fill="#000000"
                   id="svg_14"
                   d="m -3204.0967,888.75354 42.713,-107.721 42.948,107.721 h 49.989 l -74.631,-176.955 h -36.611 l -74.397,176.955 z" /></g><path
                 stroke="null"
                 fill-rule="nonzero"
                 fill="#000000"
                 id="svg_12"
                 d="m -1266.7997,1202.7225 h -45.999 v 176.955 h 45.999 z" /><g
                 stroke="null"
                 transform="translate(2072.16,445.63)"
                 id="svg_10"><path
                   stroke="null"
                   fill-rule="nonzero"
                   fill="#000000"
                   id="svg_11"
                   d="m -3204.0967,888.75354 c -5.009,4.066 -10.014,7.077 -15.02,9.036 -5.009,1.954 -9.857,2.933 -14.551,2.933 -5.948,0 -10.795,-1.408 -14.55,-4.224 -3.755,-2.817 -5.633,-6.495 -5.633,-11.031 0,-3.131 0.939,-5.713 2.817,-7.745 1.877,-2.035 4.341,-3.795 7.392,-5.28 3.051,-1.489 6.491,-2.78 10.327,-3.872 3.832,-1.097 7.626,-2.27 11.382,-3.521 15.02,-5.009 26.01,-11.698 32.973,-20.065 6.961,-8.372 10.444,-19.285 10.444,-32.74 0,-9.075 -1.525,-17.289 -4.577,-24.642 -3.05,-7.356 -7.509,-13.652 -13.376,-18.892 -5.868,-5.244 -13.066,-9.311 -21.592,-12.204 -8.529,-2.893 -18.188,-4.342 -28.984,-4.342 -22.376,0 -43.106,6.648 -62.192,19.949 l 19.713,37.08 c 6.884,-6.101 13.69,-10.641 20.419,-13.611 6.725,-2.974 13.376,-4.46 19.948,-4.46 7.51,0 13.102,1.721 16.78,5.164 3.675,3.439 5.515,7.352 5.515,11.734 0,2.659 -0.469,4.965 -1.408,6.924 -0.939,1.954 -2.505,3.754 -4.694,5.397 -2.193,1.643 -5.045,3.169 -8.566,4.577 -3.52,1.408 -7.784,2.97 -12.791,4.694 -5.947,1.877 -11.774,3.948 -17.484,6.218 -5.713,2.267 -10.795,5.281 -15.254,9.036 -4.459,3.755 -8.06,8.485 -10.796,14.199 -2.739,5.71 -4.107,12.944 -4.107,21.708 0,8.761 1.445,16.7 4.342,23.821 2.893,7.118 6.96,13.22 12.204,18.306 5.24,5.083 11.654,9.035 19.245,11.851 7.586,2.817 16.076,4.225 25.463,4.225 8.76,0 17.913,-1.214 27.458,-3.637 9.542,-2.428 18.695,-5.985 27.459,-10.679 z" /></g><g
                 stroke="null"
                 transform="translate(2231.04,451.966)"
                 id="svg_8"><path
                   stroke="null"
                   fill-rule="nonzero"
                   fill="#000000"
                   id="svg_9"
                   d="m -3204.0967,888.75354 h -54.682 v -29.571 h 51.631 v -38.958 h -51.631 v -30.509 h 54.682 v -38.959 h -100.682 v 176.955 h 100.682 z" /></g><g
                 stroke="null"
                 transform="translate(2314.66,411.835)"
                 id="svg_6"><path
                   stroke="null"
                   fill-rule="nonzero"
                   fill="#000000"
                   id="svg_7"
                   d="m -3204.0967,888.75354 h 8.684 c 9.072,0 16.035,1.877 20.887,5.632 4.848,3.755 7.276,9.153 7.276,16.193 0,7.042 -2.428,12.439 -7.276,16.194 -4.852,3.755 -11.815,5.633 -20.887,5.633 h -8.684 z m 101.151,-97.865 h -57.264 l -43.887,68.06 v -68.06 h -45.999 v 176.954 h 71.58 c 9.857,0 18.46,-1.448 25.816,-4.341 7.353,-2.897 13.414,-6.846 18.188,-11.852 4.771,-5.009 8.369,-10.796 10.796,-17.367 2.424,-6.571 3.638,-13.611 3.638,-21.122 0,-13.458 -3.249,-24.371 -9.74,-32.739 -6.494,-8.371 -16.076,-14.044 -28.749,-17.014 z" /></g></g></g></g></g></g><circle
       style="fill:none;stroke:#eb0000;stroke-width:75;stroke-dasharray:none;stroke-opacity:1"
       id="path2"
       cx="539.20703"
       cy="530.48456"
       r="400" /><path
       style="fill:#ff0000;stroke:#e90000;stroke-width:75;stroke-dasharray:none;stroke-opacity:1"
       d="M 819.91189,807.22467 236.29956,263.25991"
       id="path3" /></g></svg>
